<svg width="840" height="553" viewBox="0 0 840 553" fill="none" xmlns="http://www.w3.org/2000/svg">
<path d="M669.071 392.876C774.454 340.105 826.933 432.971 840 486L-110 486L-110 58.4744C-89.399 27.9033 4.70628 -24.0676 216.32 12.6178C480.836 58.4745 438.104 192.164 435.632 332.204C433.16 472.243 537.342 458.839 669.071 392.876Z" fill="white"/>
<path d="M513.52 396.247C602.596 351.62 646.955 430.154 658 475L-145 475L-145 113.451C-127.587 87.5972 -48.043 43.6465 130.826 74.6705C354.412 113.451 318.292 226.509 316.203 344.938C314.113 463.366 402.174 452.03 513.52 396.247Z" fill="#FFF2C9"/>
<path d="M261.864 353.606C271.762 543.543 615.725 378.365 714 592L-57.0001 592L-57.0001 234.409C45.9885 210.829 253.945 201.656 261.864 353.606Z" fill="#FAB10A"/>
</svg>
