<svg width="1345" height="689" viewBox="0 0 1345 689" fill="none" xmlns="http://www.w3.org/2000/svg">
<path d="M242 132C92.8 206.8 18.5 75.1667 0 0H1345V606C1315.83 649.333 1182.6 723 883 671C508.5 606 569 416.5 572.5 218C576 19.5 428.5 38.5 242 132Z" fill="white"/>
<path d="M462.396 127.328C336.38 190.413 273.625 79.3949 258 16H1394V527.095C1369.37 563.642 1256.84 625.772 1003.79 581.916C687.484 527.095 738.583 367.273 741.539 199.859C744.495 32.4461 619.915 48.4706 462.396 127.328Z" fill="#FFF2C9"/>
<path d="M914 272.5C900 4 413.5 237.5 274.5 -64.5H1365V441C1219.33 474.333 925.2 487.3 914 272.5Z" fill="#FAB10A"/>
</svg>
