<svg width="1512" height="94" viewBox="0 0 1512 94" fill="none" xmlns="http://www.w3.org/2000/svg">
<circle cx="-1.75" cy="46.2441" r="47.25" fill="#FF77C0"/>
<rect x="-49" y="-17" width="94.5" height="69.0577" fill="#FF77C0"/>
<circle cx="92.75" cy="46.2441" r="47.25" fill="#FF77C0"/>
<rect x="45.5" y="-17" width="94.5" height="69.0577" fill="#FF77C0"/>
<circle cx="187.25" cy="46.2441" r="47.25" fill="#FF77C0"/>
<rect x="140" y="-17" width="94.5" height="69.0577" fill="#FF77C0"/>
<circle cx="281.75" cy="46.2441" r="47.25" fill="#FF77C0"/>
<rect x="234.5" y="-17" width="94.5" height="69.0577" fill="#FF77C0"/>
<circle cx="376.25" cy="46.2441" r="47.25" fill="#FF77C0"/>
<rect x="329" y="-17" width="94.5" height="69.0577" fill="#FF77C0"/>
<circle cx="470.75" cy="46.2441" r="47.25" fill="#FF77C0"/>
<rect x="423.5" y="-17" width="94.5" height="69.0577" fill="#FF77C0"/>
<circle cx="565.25" cy="46.2441" r="47.25" fill="#FF77C0"/>
<rect x="518" y="-17" width="94.5" height="69.0577" fill="#FF77C0"/>
<circle cx="659.75" cy="46.2441" r="47.25" fill="#FF77C0"/>
<rect x="612.5" y="-17" width="94.5" height="69.0577" fill="#FF77C0"/>
<circle cx="754.25" cy="46.2441" r="47.25" fill="#FF77C0"/>
<rect x="707" y="-17" width="94.5" height="69.0577" fill="#FF77C0"/>
<circle cx="848.75" cy="46.2441" r="47.25" fill="#FF77C0"/>
<rect x="801.5" y="-17" width="94.5" height="69.0577" fill="#FF77C0"/>
<circle cx="943.25" cy="46.2441" r="47.25" fill="#FF77C0"/>
<rect x="896" y="-17" width="94.5" height="69.0577" fill="#FF77C0"/>
<circle cx="1037.75" cy="46.2441" r="47.25" fill="#FF77C0"/>
<rect x="990.5" y="-17" width="94.5" height="69.0577" fill="#FF77C0"/>
<circle cx="1132.25" cy="46.2441" r="47.25" fill="#FF77C0"/>
<rect x="1085" y="-17" width="94.5" height="69.0577" fill="#FF77C0"/>
<circle cx="1226.75" cy="46.2441" r="47.25" fill="#FF77C0"/>
<rect x="1179.5" y="-17" width="94.5" height="69.0577" fill="#FF77C0"/>
<circle cx="1321.25" cy="46.2441" r="47.25" fill="#FF77C0"/>
<rect x="1274" y="-17" width="94.5" height="69.0577" fill="#FF77C0"/>
<circle cx="1415.75" cy="46.2441" r="47.25" fill="#FF77C0"/>
<rect x="1368.5" y="-17" width="94.5" height="69.0577" fill="#FF77C0"/>
<circle cx="1510.25" cy="46.2441" r="47.25" fill="#FF77C0"/>
<rect x="1463" y="-17" width="94.5" height="69.0577" fill="#FF77C0"/>
<circle cx="47.25" cy="16.2441" r="47.25" fill="#FFA1D4"/>
<rect y="-47" width="94.5" height="69.0577" fill="#FFA1D4"/>
<circle cx="141.75" cy="16.2441" r="47.25" fill="#FFA1D4"/>
<rect x="94.5" y="-47" width="94.5" height="69.0577" fill="#FFA1D4"/>
<circle cx="236.25" cy="16.2441" r="47.25" fill="#FFA1D4"/>
<rect x="189" y="-47" width="94.5" height="69.0577" fill="#FFA1D4"/>
<circle cx="330.75" cy="16.2441" r="47.25" fill="#FFA1D4"/>
<rect x="283.5" y="-47" width="94.5" height="69.0577" fill="#FFA1D4"/>
<circle cx="425.25" cy="16.2441" r="47.25" fill="#FFA1D4"/>
<rect x="378" y="-47" width="94.5" height="69.0577" fill="#FFA1D4"/>
<circle cx="519.75" cy="16.2441" r="47.25" fill="#FFA1D4"/>
<rect x="472.5" y="-47" width="94.5" height="69.0577" fill="#FFA1D4"/>
<circle cx="614.25" cy="16.2441" r="47.25" fill="#FFA1D4"/>
<rect x="567" y="-47" width="94.5" height="69.0577" fill="#FFA1D4"/>
<circle cx="708.75" cy="16.2441" r="47.25" fill="#FFA1D4"/>
<rect x="661.5" y="-47" width="94.5" height="69.0577" fill="#FFA1D4"/>
<circle cx="803.25" cy="16.2441" r="47.25" fill="#FFA1D4"/>
<rect x="756" y="-47" width="94.5" height="69.0577" fill="#FFA1D4"/>
<circle cx="897.75" cy="16.2441" r="47.25" fill="#FFA1D4"/>
<rect x="850.5" y="-47" width="94.5" height="69.0577" fill="#FFA1D4"/>
<circle cx="992.25" cy="16.2441" r="47.25" fill="#FFA1D4"/>
<rect x="945" y="-47" width="94.5" height="69.0577" fill="#FFA1D4"/>
<circle cx="1086.75" cy="16.2441" r="47.25" fill="#FFA1D4"/>
<rect x="1039.5" y="-47" width="94.5" height="69.0577" fill="#FFA1D4"/>
<circle cx="1181.25" cy="16.2441" r="47.25" fill="#FFA1D4"/>
<rect x="1134" y="-47" width="94.5" height="69.0577" fill="#FFA1D4"/>
<circle cx="1275.75" cy="16.2441" r="47.25" fill="#FFA1D4"/>
<rect x="1228.5" y="-47" width="94.5" height="69.0577" fill="#FFA1D4"/>
<circle cx="1370.25" cy="16.2441" r="47.25" fill="#FFA1D4"/>
<rect x="1323" y="-47" width="94.5" height="69.0577" fill="#FFA1D4"/>
<circle cx="1464.75" cy="16.2441" r="47.25" fill="#FFA1D4"/>
<rect x="1417.5" y="-47" width="94.5" height="69.0577" fill="#FFA1D4"/>
</svg>
